<svg width="9" height="9" viewBox="0 0 9 9" fill="none" xmlns="http://www.w3.org/2000/svg">
<g clip-path="url(#clip0_27_2211)">
<path d="M0 0.5625C0 0.251367 0.251367 0 0.5625 0H8.4375C8.74863 0 9 0.251367 9 0.5625C9 0.873633 8.74863 1.125 8.4375 1.125V7.875C8.74863 7.875 9 8.12637 9 8.4375C9 8.74863 8.74863 9 8.4375 9H5.34375V8.15625C5.34375 7.69043 4.96582 7.3125 4.5 7.3125C4.03418 7.3125 3.65625 7.69043 3.65625 8.15625V9H0.5625C0.251367 9 0 8.74863 0 8.4375C0 8.12637 0.251367 7.875 0.5625 7.875V1.125C0.251367 1.125 0 0.873633 0 0.5625ZM1.6875 1.96875V2.53125C1.6875 2.68594 1.81406 2.8125 1.96875 2.8125H2.53125C2.68594 2.8125 2.8125 2.68594 2.8125 2.53125V1.96875C2.8125 1.81406 2.68594 1.6875 2.53125 1.6875H1.96875C1.81406 1.6875 1.6875 1.81406 1.6875 1.96875ZM4.21875 1.6875C4.06406 1.6875 3.9375 1.81406 3.9375 1.96875V2.53125C3.9375 2.68594 4.06406 2.8125 4.21875 2.8125H4.78125C4.93594 2.8125 5.0625 2.68594 5.0625 2.53125V1.96875C5.0625 1.81406 4.93594 1.6875 4.78125 1.6875H4.21875ZM6.1875 1.96875V2.53125C6.1875 2.68594 6.31406 2.8125 6.46875 2.8125H7.03125C7.18594 2.8125 7.3125 2.68594 7.3125 2.53125V1.96875C7.3125 1.81406 7.18594 1.6875 7.03125 1.6875H6.46875C6.31406 1.6875 6.1875 1.81406 6.1875 1.96875ZM1.96875 3.375C1.81406 3.375 1.6875 3.50156 1.6875 3.65625V4.21875C1.6875 4.37344 1.81406 4.5 1.96875 4.5H2.53125C2.68594 4.5 2.8125 4.37344 2.8125 4.21875V3.65625C2.8125 3.50156 2.68594 3.375 2.53125 3.375H1.96875ZM3.9375 3.65625V4.21875C3.9375 4.37344 4.06406 4.5 4.21875 4.5H4.78125C4.93594 4.5 5.0625 4.37344 5.0625 4.21875V3.65625C5.0625 3.50156 4.93594 3.375 4.78125 3.375H4.21875C4.06406 3.375 3.9375 3.50156 3.9375 3.65625ZM6.46875 3.375C6.31406 3.375 6.1875 3.50156 6.1875 3.65625V4.21875C6.1875 4.37344 6.31406 4.5 6.46875 4.5H7.03125C7.18594 4.5 7.3125 4.37344 7.3125 4.21875V3.65625C7.3125 3.50156 7.18594 3.375 7.03125 3.375H6.46875ZM5.76562 6.75C5.99941 6.75 6.19277 6.5584 6.13477 6.33164C5.94844 5.60215 5.2875 5.0625 4.5 5.0625C3.7125 5.0625 3.0498 5.60215 2.86523 6.33164C2.80723 6.55664 3.00234 6.75 3.23438 6.75H5.76562Z" fill="white"/>
</g>
<defs>
<clipPath id="clip0_27_2211">
<rect width="9" height="9" fill="white"/>
</clipPath>
</defs>
</svg>
